<svg fill="none" height="24" viewBox="0 0 24 24" width="24" xmlns="http://www.w3.org/2000/svg"><path d="m17.063.333252c3.955 0 6.6033 2.776668 6.6033 6.906668v9.53288c0 4.1171-2.6483 6.8938-6.6033 6.8938h-10.11499c-3.955 0-6.615002-2.7767-6.615002-6.8938v-9.53288c0-4.13 2.660002-6.906668 6.615002-6.906668zm-.1867 8.166668c-.3966-.39667-1.05-.39667-1.4466 0l-4.8184 4.81838-2.04162-2.0417c-.39667-.3967-1.05-.3967-1.44667 0s-.39667 1.0383 0 1.4467l2.77667 2.765c.19832.1983.45502.2916.71162.2916.2684 0 .525-.0933.7234-.2916l5.5416-5.54171c.3967-.39667.3967-1.03834 0-1.44667z" fill="#43c6ac"/></svg>