<svg fill="none" height="24" viewBox="0 0 24 24" width="24" xmlns="http://www.w3.org/2000/svg"><path d="m17.063.333008c3.955 0 6.6033 2.776662 6.6033 6.906672v9.53282c0 4.1172-2.6483 6.8938-6.6033 6.8938h-10.11499c-3.955 0-6.615002-2.7766-6.615002-6.8938v-9.53282c0-4.13001 2.660002-6.906672 6.615002-6.906672zm-.1867 8.166662c-.3966-.39666-1.05-.39666-1.4466 0l-4.8184 4.81833-2.04162-2.0417c-.39667-.3966-1.05-.3966-1.44667 0-.39667.3967-.39667 1.0384 0 1.4467l2.77667 2.765c.19832.1983.45502.2917.71162.2917.2684 0 .525-.0934.7234-.2917l5.5416-5.54166c.3967-.39667.3967-1.03833 0-1.44667z" fill="#f8ffae"/></svg>